<svg width="139" height="56" fill="none" xmlns="http://www.w3.org/2000/svg"><g clip-path="url(#a)"><path d="M24.912 12.018 20.31 43.553h-6.612l1.68-11.387H8.256L6.61 43.553H0l4.639-31.535h6.575L9.242 25.332h7.122l1.974-13.314h6.575-.001Zm13.561 31.535.22-6.876h-6.1l-1.79 6.876h-6.977l9.388-31.535h12.053l.147 31.535H38.473Zm-1.497-23.87-2.885 11.125h4.785l.401-11.124h-2.301v-.002Zm36.807-7.665L69.18 43.553h-6.612l-4.601-17.255-2.484 17.256H48.87l4.639-31.536h6.794l4.53 16.118 2.373-16.118h6.577Zm15.425 0c3.19 0 5.467.964 6.83 2.89.999 1.46 1.497 3.286 1.497 5.476 0 .788-.06 1.62-.181 2.496l-1.425 9.768c-.487 3.298-1.681 5.941-3.58 7.927-1.9 1.986-4.359 2.978-7.38 2.978H74.34l4.64-31.535h10.228Zm-2.302 6.833h-2.374L81.939 36.72h3.47c1.144 0 2.033-.365 2.666-1.094.658-.76 1.108-1.986 1.35-3.678l1.061-7.184c.092-.58.141-1.166.146-1.753 0-2.775-1.241-4.16-3.726-4.16v.001Zm30.206 24.702H98.775l4.641-31.535h18.337l-1.023 6.833h-11.762l-.84 5.913h9.716l-1.022 6.832h-9.717l-.73 5.125h11.762l-1.024 6.832h-.001Zm20.865 0H121.32l4.64-31.535h6.575l-3.616 24.703H139l-1.023 6.832Zm-64.506 5.612h63.543l-1.985 6.555H71.486l1.985-6.555ZM6.95 0h69.5l-1.986 6.555h-69.5L6.95 0Z" fill="#9C9C9C"/></g><defs><clipPath id="a"><path fill="#fff" d="M0 0h139v55.72H0z"/></clipPath></defs></svg>