<svg width="136" height="30" fill="none" xmlns="http://www.w3.org/2000/svg"><path d="M5.133 11.51c.66-.987 1.564-1.788 2.713-2.405 1.173-.617 2.505-.925 3.996-.925 1.735 0 3.3.432 4.693 1.295 1.417.863 2.53 2.096 3.336 3.7.831 1.578 1.247 3.415 1.247 5.512 0 2.096-.416 3.958-1.247 5.586-.807 1.603-1.919 2.849-3.336 3.737-1.393.888-2.958 1.332-4.693 1.332-1.515 0-2.848-.296-3.996-.888-1.125-.617-2.029-1.406-2.713-2.368v2.923H0V1.632h5.133v9.878Zm10.742 7.177c0-1.233-.257-2.294-.77-3.182-.489-.912-1.149-1.603-1.98-2.072a5.161 5.161 0 0 0-2.64-.702 5.09 5.09 0 0 0-2.64.74c-.806.468-1.466 1.159-1.979 2.071-.489.913-.733 1.986-.733 3.219 0 1.233.244 2.306.733 3.219.513.912 1.173 1.615 1.98 2.108.83.469 1.71.703 2.64.703.953 0 1.832-.247 2.64-.74.83-.493 1.49-1.196 1.979-2.108.513-.913.77-1.998.77-3.256ZM27.45 6.07c-.904 0-1.662-.283-2.273-.85-.587-.593-.88-1.32-.88-2.183 0-.864.293-1.579.88-2.146.61-.592 1.369-.888 2.273-.888.904 0 1.65.296 2.236.888.611.567.917 1.282.917 2.146 0 .863-.306 1.59-.917 2.182-.586.568-1.332.851-2.236.851Zm2.53 2.442v20.496h-5.133V8.513h5.133Zm17.097 20.496-6.893-8.731v8.73h-5.133V1.633h5.133v15.575l6.82-8.694h6.672L44.73 18.798l9.019 10.21h-6.672Zm7.046-10.248c0-2.121.428-3.971 1.283-5.55.855-1.603 2.04-2.836 3.556-3.7 1.516-.887 3.25-1.33 5.206-1.33 2.518 0 4.595.64 6.233 1.923 1.662 1.258 2.774 3.034 3.336 5.327h-5.535c-.293-.888-.794-1.578-1.503-2.071-.684-.518-1.54-.777-2.566-.777-1.467 0-2.628.542-3.483 1.627-.856 1.06-1.283 2.578-1.283 4.55 0 1.95.427 3.466 1.283 4.551.855 1.06 2.016 1.591 3.483 1.591 2.077 0 3.434-.937 4.07-2.812h5.535c-.562 2.22-1.674 3.984-3.336 5.29-1.662 1.308-3.74 1.962-6.233 1.962-1.955 0-3.69-.432-5.206-1.295a9.376 9.376 0 0 1-3.556-3.7c-.855-1.603-1.283-3.465-1.283-5.586h-.001Zm27.49-7.066a7.296 7.296 0 0 1 2.566-2.553c1.075-.617 2.297-.925 3.666-.925v5.438h-1.356c-1.614 0-2.836.383-3.667 1.147-.806.765-1.21 2.097-1.21 3.996v10.21H76.48V8.514h5.132v3.182Zm21.97 14.391c-.562.937-1.478 1.727-2.749 2.368a9.285 9.285 0 0 1-4.106.925c-1.271 0-2.42-.26-3.447-.777-1.026-.518-1.833-1.233-2.42-2.146-.586-.913-.88-1.96-.88-3.145 0-1.899.697-3.453 2.09-4.661 1.418-1.209 3.532-1.813 6.343-1.813h5.169c-.049-1.307-.427-2.343-1.136-3.107-.685-.79-1.638-1.184-2.86-1.184-1.075 0-1.967.296-2.676.888-.709.567-1.161 1.368-1.357 2.404h-5.132c.244-1.48.77-2.8 1.576-3.958a8.313 8.313 0 0 1 3.226-2.738c1.345-.666 2.848-.999 4.51-.999 1.711 0 3.251.358 4.619 1.073a7.868 7.868 0 0 1 3.263 3.07c.782 1.332 1.173 2.899 1.173 4.7v12.023h-5.206v-2.923Zm-5.352-.888a5.92 5.92 0 0 0 2.493-.555 5.024 5.024 0 0 0 2.053-1.665c.537-.74.806-1.615.806-2.626v-.148h-4.876c-1.173 0-2.053.234-2.64.703-.562.468-.843 1.085-.843 1.85 0 .74.257 1.331.77 1.775.538.444 1.283.666 2.237.666Zm21.383-12.43v16.24h-5.206v-16.24h-2.31V8.513h2.31V7.477c0-2.516.709-4.365 2.126-5.55C117.952.745 120.091.19 122.95.264v4.365c-1.246-.024-2.114.185-2.603.63-.489.443-.733 1.245-.733 2.404v.851h6.67V3.445h5.17v5.068H136v4.255h-4.546v9.914c0 .691.159 1.197.476 1.517.343.296.905.444 1.687.444H136v4.366h-3.226c-4.326 0-6.49-2.121-6.49-6.364v-9.877h-6.67Z" fill="#fff"/></svg>