<svg width="32" height="32" fill="none" xmlns="http://www.w3.org/2000/svg"><circle cx="16" cy="16" r="16" fill="#fff"/><path d="M22.208 13.375h-.785l-1.63-4.973a2.121 2.121 0 0 0-.702-1.015 1.798 1.798 0 0 0-1.1-.387h-1.533c-.527 0-.958.478-.958 1.063 0 .584.431 1.062.958 1.062h1.534l1.399 4.25h-4.61l-.345-1.063h.087c.527 0 .958-.478.958-1.062 0-.584-.431-1.063-.958-1.063h-2.856c-.527 0-.959.479-.959 1.063s.432 1.063.959 1.063h.718l1.745 5.312h-.643c-.421-2.37-2.213-4.123-4.456-4.24C6.348 13.238 4 15.714 4 18.689S6.108 24 8.792 24c2.357 0 4.264-1.796 4.696-4.25h4.024c.422 2.37 2.214 4.122 4.457 4.24 2.683.138 5.031-2.327 5.031-5.313 0-2.964-2.108-5.302-4.792-5.302ZM9.75 19.75h1.744c-.402 1.307-1.533 2.21-2.894 2.114-1.428-.095-2.616-1.434-2.683-3.028-.067-1.86 1.217-3.336 2.875-3.336 1.274 0 2.319.882 2.702 2.125H9.75c-.527 0-.958.478-.958 1.063 0 .584.43 1.062.958 1.062Zm7.762-2.125h-1.341l-.7-2.125h2.904a5.305 5.305 0 0 0-.863 2.125Zm4.581 4.25c-1.476-.064-2.721-1.456-2.76-3.102-.019-1.02.374-1.913 1.007-2.508l.594 1.806c.182.553.728.84 1.226.638.499-.202.758-.808.575-1.36l-.603-1.838.01-.011c.384-.014.766.057 1.125.211.358.155.685.388.96.685.275.298.492.655.64 1.049.147.393.22.816.216 1.242 0 1.828-1.322 3.252-2.99 3.188Z" fill="url(#a)"/><defs><linearGradient id="a" x1="15.5" y1="7" x2="15.5" y2="24" gradientUnits="userSpaceOnUse"><stop stop-color="#FFB60D"/><stop offset="1" stop-color="#E59317"/></linearGradient></defs></svg>